<mxfile host="app.diagrams.net" agent="Mozilla/5.0 (Windows NT 10.0; Win64; x64) AppleWebKit/537.36 (KHTML, like Gecko) Chrome/140.0.0.0 Safari/537.36" version="28.2.5">
  <diagram name="Page-1" id="fghdiP34iX07XnkZCPm1">
    <mxGraphModel dx="1264" dy="503" grid="1" gridSize="10" guides="1" tooltips="1" connect="1" arrows="1" fold="1" page="1" pageScale="1" pageWidth="827" pageHeight="1169" math="0" shadow="0">
      <root>
        <mxCell id="0" />
        <mxCell id="1" parent="0" />
        <mxCell id="ptBnstIqWaZD1Uevk2Ez-9" value="Staff" style="rounded=0;whiteSpace=wrap;html=1;" vertex="1" parent="1">
          <mxGeometry x="361" y="83" width="120" height="40" as="geometry" />
        </mxCell>
        <mxCell id="ptBnstIqWaZD1Uevk2Ez-10" value="Project" style="rounded=0;whiteSpace=wrap;html=1;" vertex="1" parent="1">
          <mxGeometry x="361" y="281" width="120" height="40" as="geometry" />
        </mxCell>
        <mxCell id="ptBnstIqWaZD1Uevk2Ez-11" value="IT_Solution" style="rounded=0;whiteSpace=wrap;html=1;" vertex="1" parent="1">
          <mxGeometry x="80" y="281" width="120" height="40" as="geometry" />
        </mxCell>
        <mxCell id="ptBnstIqWaZD1Uevk2Ez-12" value="Skill" style="rounded=0;whiteSpace=wrap;html=1;" vertex="1" parent="1">
          <mxGeometry x="640" y="83" width="120" height="40" as="geometry" />
        </mxCell>
        <mxCell id="ptBnstIqWaZD1Uevk2Ez-16" value="" style="endArrow=none;html=1;rounded=0;" edge="1" parent="1" source="ptBnstIqWaZD1Uevk2Ez-11" target="ptBnstIqWaZD1Uevk2Ez-10">
          <mxGeometry width="50" height="50" relative="1" as="geometry">
            <mxPoint x="440" y="300" as="sourcePoint" />
            <mxPoint x="490" y="250" as="targetPoint" />
          </mxGeometry>
        </mxCell>
        <mxCell id="ptBnstIqWaZD1Uevk2Ez-17" value="0..*" style="text;html=1;align=center;verticalAlign=middle;resizable=0;points=[];autosize=1;strokeColor=none;fillColor=none;" vertex="1" parent="1">
          <mxGeometry x="328" y="296" width="40" height="30" as="geometry" />
        </mxCell>
        <mxCell id="ptBnstIqWaZD1Uevk2Ez-18" value="1..*" style="text;html=1;align=center;verticalAlign=middle;resizable=0;points=[];autosize=1;strokeColor=none;fillColor=none;" vertex="1" parent="1">
          <mxGeometry x="192" y="296" width="40" height="30" as="geometry" />
        </mxCell>
        <mxCell id="ptBnstIqWaZD1Uevk2Ez-19" value="" style="endArrow=none;html=1;rounded=0;" edge="1" parent="1" source="ptBnstIqWaZD1Uevk2Ez-9" target="ptBnstIqWaZD1Uevk2Ez-10">
          <mxGeometry width="50" height="50" relative="1" as="geometry">
            <mxPoint x="251" y="311" as="sourcePoint" />
            <mxPoint x="371" y="311" as="targetPoint" />
          </mxGeometry>
        </mxCell>
        <mxCell id="ptBnstIqWaZD1Uevk2Ez-20" value="1..*" style="text;html=1;align=center;verticalAlign=middle;resizable=0;points=[];autosize=1;strokeColor=none;fillColor=none;" vertex="1" parent="1">
          <mxGeometry x="416" y="120" width="40" height="30" as="geometry" />
        </mxCell>
        <mxCell id="ptBnstIqWaZD1Uevk2Ez-21" value="0..*" style="text;html=1;align=center;verticalAlign=middle;resizable=0;points=[];autosize=1;strokeColor=none;fillColor=none;" vertex="1" parent="1">
          <mxGeometry x="416" y="258" width="40" height="30" as="geometry" />
        </mxCell>
        <mxCell id="ptBnstIqWaZD1Uevk2Ez-22" value="" style="endArrow=none;html=1;rounded=0;" edge="1" parent="1" source="ptBnstIqWaZD1Uevk2Ez-9" target="ptBnstIqWaZD1Uevk2Ez-12">
          <mxGeometry width="50" height="50" relative="1" as="geometry">
            <mxPoint x="431" y="133" as="sourcePoint" />
            <mxPoint x="661" y="162" as="targetPoint" />
          </mxGeometry>
        </mxCell>
        <mxCell id="ptBnstIqWaZD1Uevk2Ez-23" value="0..*" style="text;html=1;align=center;verticalAlign=middle;resizable=0;points=[];autosize=1;strokeColor=none;fillColor=none;" vertex="1" parent="1">
          <mxGeometry x="477" y="98" width="40" height="30" as="geometry" />
        </mxCell>
        <mxCell id="ptBnstIqWaZD1Uevk2Ez-24" value="1..*" style="text;html=1;align=center;verticalAlign=middle;resizable=0;points=[];autosize=1;strokeColor=none;fillColor=none;" vertex="1" parent="1">
          <mxGeometry x="604" y="98" width="40" height="30" as="geometry" />
        </mxCell>
        <mxCell id="ptBnstIqWaZD1Uevk2Ez-25" value="" style="endArrow=none;html=1;rounded=0;" edge="1" parent="1" source="ptBnstIqWaZD1Uevk2Ez-12" target="ptBnstIqWaZD1Uevk2Ez-10">
          <mxGeometry width="50" height="50" relative="1" as="geometry">
            <mxPoint x="431" y="133" as="sourcePoint" />
            <mxPoint x="431" y="291" as="targetPoint" />
            <Array as="points">
              <mxPoint x="700" y="301" />
            </Array>
          </mxGeometry>
        </mxCell>
        <mxCell id="ptBnstIqWaZD1Uevk2Ez-26" value="Have" style="text;html=1;align=center;verticalAlign=middle;resizable=0;points=[];autosize=1;strokeColor=none;fillColor=none;" vertex="1" parent="1">
          <mxGeometry x="515" y="68" width="50" height="30" as="geometry" />
        </mxCell>
        <mxCell id="ptBnstIqWaZD1Uevk2Ez-27" value="" style="triangle;whiteSpace=wrap;html=1;" vertex="1" parent="1">
          <mxGeometry x="565" y="78" width="20" height="10" as="geometry" />
        </mxCell>
        <mxCell id="ptBnstIqWaZD1Uevk2Ez-30" value="0..*" style="text;html=1;align=center;verticalAlign=middle;resizable=0;points=[];autosize=1;strokeColor=none;fillColor=none;" vertex="1" parent="1">
          <mxGeometry x="477" y="296" width="40" height="30" as="geometry" />
        </mxCell>
        <mxCell id="ptBnstIqWaZD1Uevk2Ez-31" value="1..*" style="text;html=1;align=center;verticalAlign=middle;resizable=0;points=[];autosize=1;strokeColor=none;fillColor=none;" vertex="1" parent="1">
          <mxGeometry x="695" y="120" width="40" height="30" as="geometry" />
        </mxCell>
        <mxCell id="ptBnstIqWaZD1Uevk2Ez-32" value="Assaign" style="text;html=1;align=center;verticalAlign=middle;resizable=0;points=[];autosize=1;strokeColor=none;fillColor=none;rotation=-90;" vertex="1" parent="1">
          <mxGeometry x="361" y="160" width="70" height="30" as="geometry" />
        </mxCell>
        <mxCell id="ptBnstIqWaZD1Uevk2Ez-33" value="" style="triangle;whiteSpace=wrap;html=1;rotation=90;" vertex="1" parent="1">
          <mxGeometry x="387" y="212" width="20" height="10" as="geometry" />
        </mxCell>
        <mxCell id="ptBnstIqWaZD1Uevk2Ez-36" value="" style="triangle;whiteSpace=wrap;html=1;rotation=-180;" vertex="1" parent="1">
          <mxGeometry x="555" y="276" width="20" height="10" as="geometry" />
        </mxCell>
        <mxCell id="ptBnstIqWaZD1Uevk2Ez-37" value="Use" style="text;html=1;align=center;verticalAlign=middle;resizable=0;points=[];autosize=1;strokeColor=none;fillColor=none;" vertex="1" parent="1">
          <mxGeometry x="575" y="266" width="40" height="30" as="geometry" />
        </mxCell>
        <mxCell id="ptBnstIqWaZD1Uevk2Ez-39" value="Use" style="text;html=1;align=center;verticalAlign=middle;resizable=0;points=[];autosize=1;strokeColor=none;fillColor=none;" vertex="1" parent="1">
          <mxGeometry x="260" y="266" width="40" height="30" as="geometry" />
        </mxCell>
        <mxCell id="ptBnstIqWaZD1Uevk2Ez-41" value="" style="triangle;whiteSpace=wrap;html=1;rotation=-180;" vertex="1" parent="1">
          <mxGeometry x="240" y="276" width="20" height="10" as="geometry" />
        </mxCell>
      </root>
    </mxGraphModel>
  </diagram>
</mxfile>
